# xmcd CD database file
#
# Track frame offsets:
#	150
#	17808
#	38117
#	61880
#	74587
#	99959
#	117270
#	137098
#	160169
#	178234
#	197841
#
# Disc length: 2903 seconds
#
# Revision: 0
# Processed by: cddbd v1.5.2PL0 Copyright (c) Steve Scherf et al.
# Submitted via: CDex 1.81
#
DISCID=990b550b
DTITLE=Riverboat Ramblers - Someday
DYEAR=2000
DGENRE=Jazz
TTITLE0=Someday
TTITLE1=I' gonna sit write down
TTITLE2=Why don't we do this more often
TTITLE3=Heart
TTITLE4=Chattanoga Choo-choo
TTITLE5=Can't buy me love
TTITLE6=Georgie on my mind
TTITLE7=Tuxedo junction
TTITLE8=Jeepers Creepers
TTITLE9=What a wonderful world
TTITLE10=When you're smiling
EXTD=YEAR: 2000
EXTT0=
EXTT1=
EXTT2=
EXTT3=
EXTT4=
EXTT5=
EXTT6=
EXTT7=
EXTT8=
EXTT9=
EXTT10=
PLAYORDER=
